<svg width="48" height="68" viewBox="0 0 48 68" fill="none" xmlns="http://www.w3.org/2000/svg">
<path d="M1.18018 17.4616C1.44052 15.4556 2.0413 13.5019 3.06263 11.6354C4.92506 8.25138 7.78879 5.70461 11.6739 4.03003C14.7779 2.70432 18.0622 2.09379 21.4666 1.90192C21.6869 1.88447 21.8872 1.83214 22.1075 1.8147C23.3691 1.8147 24.6308 1.8147 25.8924 1.8147C27.3743 1.98913 28.8763 2.09379 30.3382 2.338C34.3835 2.98342 38.0282 4.3789 41.0121 6.87334C44.1763 9.52476 45.9986 12.8042 46.6595 16.572C46.8798 17.793 46.9599 19.049 46.9599 20.2875C46.9799 24.3693 46.9799 28.4685 46.9799 32.5503" stroke="#EEEEEE" stroke-width="2" stroke-miterlimit="10" stroke-linecap="round" stroke-linejoin="round"/>
<path d="M47 35.7472C47 35.8884 47 35.6261 47 35.7472Z" stroke="#EEEEEE" stroke-width="2" stroke-miterlimit="10" stroke-linecap="round" stroke-linejoin="round"/>
<path d="M47 38.9522C47 42.1618 47 45.354 47 48.5636C47 51.4767 46.3992 54.2677 44.9573 56.9016C43.0949 60.2683 40.2712 62.815 36.3862 64.4547C31.9604 66.3386 27.2342 66.8096 22.3679 66.6526C18.6831 66.5305 15.0984 65.9374 11.754 64.5245C7.18807 62.5883 4.10405 59.5007 2.32173 55.384C1.36047 53.1513 1 50.8138 1 48.424C1 39.3882 1 30.3525 1 21.3341" stroke="#EEEEEE" stroke-width="2" stroke-miterlimit="10" stroke-linecap="round" stroke-linejoin="round"/>
<path d="M20.9659 18.8571C20.9659 19.7816 20.9459 20.7061 20.9659 21.6481C21.006 23.2355 22.2676 24.3867 23.9698 24.4042C25.7121 24.4216 27.0339 23.2703 27.0539 21.6481C27.0739 19.834 27.0739 18.0198 27.0539 16.2057C27.0339 14.6183 25.7522 13.467 24.05 13.4496C22.3077 13.4322 21.006 14.6009 20.9659 16.2057C20.9459 17.0953 20.9659 17.9675 20.9659 18.8571Z" stroke="#EEEEEE" stroke-width="2" stroke-miterlimit="10"/>
</svg>
